<svg width="14" height="14" viewBox="0 0 14 14" fill="none" xmlns="http://www.w3.org/2000/svg">
<path d="M9.74275 13.0235C8.51583 13.0235 7.28798 12.5302 6.35362 11.5445C5.19617 10.3232 3.31555 10.3242 2.16085 11.5445C1.80338 11.922 1.22557 11.922 0.868099 11.5445C0.510626 11.167 0.510626 10.5568 0.868099 10.1793C2.73592 8.20693 5.77672 8.20693 7.64637 10.1793C8.8029 11.3997 10.6835 11.3987 11.8391 10.1793C12.1966 9.80185 12.7744 9.80185 13.1319 10.1793C13.4894 10.5568 13.4894 11.167 13.1319 11.5445C12.1984 12.5302 10.9706 13.0235 9.74275 13.0235ZM9.74275 9.16176C8.51583 9.16176 7.28798 8.66841 6.35362 7.6827C5.19617 6.46141 3.31555 6.46237 2.16085 7.6827C1.80338 8.06018 1.22557 8.06018 0.868099 7.6827C0.510626 7.30521 0.510626 6.69504 0.868099 6.31756C2.73592 4.34515 5.77672 4.34515 7.64637 6.31756C8.8029 7.53788 10.6835 7.53691 11.8391 6.31756C12.1966 5.94007 12.7744 5.94007 13.1319 6.31756C13.4894 6.69504 13.4894 7.30521 13.1319 7.6827C12.1984 8.66841 10.9706 9.16176 9.74275 9.16176ZM9.74275 5.29998C8.51583 5.29998 7.28798 4.80664 6.35362 3.82092C5.19617 2.59963 3.31555 2.60059 2.16085 3.82092C1.80338 4.19841 1.22557 4.19841 0.868099 3.82092C0.510626 3.44343 0.510626 2.83327 0.868099 2.45578C2.73592 0.48434 5.77672 0.482409 7.64637 2.45578C8.8029 3.6761 10.6835 3.67513 11.8391 2.45578C12.1966 2.07829 12.7744 2.07829 13.1319 2.45578C13.4894 2.83327 13.4894 3.44343 13.1319 3.82092C12.1984 4.80664 10.9706 5.29998 9.74275 5.29998Z" fill="white"/>
</svg>
