<svg width="40" height="40" viewBox="0 0 40 40" fill="none" xmlns="http://www.w3.org/2000/svg">
<rect width="40" height="40" rx="20" fill="url(#paint0_diamond_1_136)"/>
<path d="M20.0375 14.4786L25.5412 19.9252L20.0375 25.3718L14.5338 19.9252L20.0375 14.4786ZM20.0375 12.7625C19.7359 12.7625 19.4344 12.9117 19.2082 13.1356L13.1768 19.1045C12.7244 19.5521 12.7244 20.2983 13.1768 20.8205L19.2082 26.7894C19.4344 27.0133 19.7359 27.1625 20.0375 27.1625C20.3391 27.1625 20.6406 27.0133 20.8668 26.7894L26.8982 20.8205C27.3506 20.3729 27.3506 19.5521 26.8982 19.1045L20.8668 13.1356C20.6406 12.9117 20.3391 12.7625 20.0375 12.7625ZM20.6406 20.5221C21.0176 20.149 21.0176 19.6267 20.6406 19.2537C20.2637 18.8806 19.7359 18.8806 19.359 19.2537C18.982 19.6267 18.982 20.149 19.359 20.5221C19.7359 20.8951 20.3391 20.8951 20.6406 20.5221ZM20.6406 17.6122C21.0176 17.2392 21.0176 16.7169 20.6406 16.3438C20.2637 15.9708 19.7359 15.9708 19.359 16.3438C18.982 16.7169 18.982 17.2392 19.359 17.6122C19.7359 17.9107 20.3391 17.9107 20.6406 17.6122ZM23.6563 20.5221C24.0333 20.149 24.0333 19.6267 23.6563 19.2537C23.2794 18.8806 22.7516 18.8806 22.3747 19.2537C21.9977 19.6267 21.9977 20.149 22.3747 20.5221C22.7516 20.8951 23.3548 20.8951 23.6563 20.5221ZM17.7003 20.5221C18.0773 20.149 18.0773 19.6267 17.7003 19.2537C17.3234 18.8806 16.7956 18.8806 16.4186 19.2537C16.0417 19.6267 16.0417 20.149 16.4186 20.5221C16.7202 20.8951 17.3234 20.8951 17.7003 20.5221ZM20.6406 23.5065C21.0176 23.1335 21.0176 22.6112 20.6406 22.2381C20.2637 21.8651 19.7359 21.8651 19.359 22.2381C18.982 22.6112 18.982 23.1335 19.359 23.5065C19.7359 23.8796 20.3391 23.8796 20.6406 23.5065Z" fill="black"/>
<defs>
<radialGradient id="paint0_diamond_1_136" cx="0" cy="0" r="1" gradientUnits="userSpaceOnUse" gradientTransform="translate(2.94201 6.52582) rotate(42.0912) scale(49.9381 143.533)">
<stop stop-color="#E32900"/>
<stop offset="0.472959" stop-color="#C6E216"/>
<stop offset="1" stop-color="#D808FA"/>
</radialGradient>
</defs>
</svg>
