<svg width="16" height="16" viewBox="0 0 16 16" fill="none" xmlns="http://www.w3.org/2000/svg">
<path d="M8.03749 2.47856L13.5412 7.92519L8.03749 13.3718L2.53383 7.92519L8.03749 2.47856ZM8.03749 0.7625C7.73592 0.7625 7.43435 0.911723 7.20817 1.13556L1.17676 7.10447C0.724405 7.55214 0.724405 8.29825 1.17676 8.82053L7.20817 14.7894C7.43435 15.0133 7.73592 15.1625 8.03749 15.1625C8.33907 15.1625 8.64064 15.0133 8.86681 14.7894L14.8982 8.82053C15.3506 8.37286 15.3506 7.55214 14.8982 7.10447L8.86681 1.13556C8.64064 0.911723 8.33907 0.7625 8.03749 0.7625ZM8.64064 8.52208C9.0176 8.14903 9.0176 7.62675 8.64064 7.25369C8.26367 6.88063 7.73592 6.88063 7.35896 7.25369C6.982 7.62675 6.982 8.14903 7.35896 8.52208C7.73592 8.89514 8.33907 8.89514 8.64064 8.52208ZM8.64064 5.61224C9.0176 5.23918 9.0176 4.7169 8.64064 4.34385C8.26367 3.97079 7.73592 3.97079 7.35896 4.34385C6.982 4.7169 6.982 5.23918 7.35896 5.61224C7.73592 5.91069 8.33907 5.91069 8.64064 5.61224ZM11.6563 8.52208C12.0333 8.14903 12.0333 7.62675 11.6563 7.25369C11.2794 6.88063 10.7516 6.88063 10.3747 7.25369C9.9977 7.62675 9.9977 8.14903 10.3747 8.52208C10.7516 8.89514 11.3548 8.89514 11.6563 8.52208ZM5.70032 8.52208C6.07728 8.14903 6.07728 7.62675 5.70032 7.25369C5.32336 6.88063 4.79561 6.88063 4.41865 7.25369C4.04168 7.62675 4.04168 8.14903 4.41865 8.52208C4.72022 8.89514 5.32336 8.89514 5.70032 8.52208ZM8.64064 11.5065C9.0176 11.1335 9.0176 10.6112 8.64064 10.2381C8.26367 9.86509 7.73592 9.86509 7.35896 10.2381C6.982 10.6112 6.982 11.1335 7.35896 11.5065C7.73592 11.8796 8.33907 11.8796 8.64064 11.5065Z" fill="black"/>
</svg>
