<svg width="14" height="14" viewBox="0 0 14 14" fill="none" xmlns="http://www.w3.org/2000/svg">
<path fill-rule="evenodd" clip-rule="evenodd" d="M7.15028 11.9646C6.97119 11.8659 6.75711 11.8658 6.57794 11.9643L3.57371 13.6167C3.12296 13.8646 2.59614 13.4642 2.68224 12.9391L3.25614 9.43915C3.29036 9.23048 3.22416 9.01757 3.07914 8.8699L0.645719 6.39192C0.280597 6.02011 0.481876 5.3717 0.986146 5.29524L4.34317 4.78627C4.54337 4.75592 4.71647 4.62441 4.806 4.43463L6.30824 1.25026C6.53361 0.772537 7.18478 0.772537 7.41015 1.25026L8.9124 4.43463C9.00193 4.62441 9.17502 4.75592 9.37523 4.78627L12.7323 5.29524C13.2365 5.3717 13.4378 6.02011 13.0727 6.39192L10.6393 8.8699C10.4942 9.01757 10.428 9.23048 10.4623 9.43915L11.0359 12.9376C11.1221 13.463 10.5947 13.8634 10.1439 13.6149L7.15028 11.9646Z" fill="white"/>
</svg>
