<svg width="12" height="14" viewBox="0 0 12 14" fill="none" xmlns="http://www.w3.org/2000/svg">
<path d="M10.2295 2.53939C9.25321 2.53939 8.45901 3.32239 8.45901 4.28484V6.61211C8.45901 6.93293 8.19426 7.19393 7.86884 7.19393H6.98045C7.04595 7.01183 7.08196 6.81606 7.08196 6.61211C7.08196 6.16539 6.91066 5.75754 6.62969 5.44849C6.91069 5.13944 7.08196 4.73156 7.08196 4.28486C7.08196 4.08091 7.04595 3.88516 6.98045 3.70304H7.08196C7.40789 3.70304 7.67213 3.44254 7.67213 3.12122C7.67213 2.79989 7.40789 2.53939 7.08196 2.53939H6.7733L7.23642 1.39792C7.30917 1.21867 7.28698 1.01555 7.17716 0.855621C7.06743 0.695771 6.88432 0.599996 6.68852 0.599996H3.93441C3.73856 0.599996 3.55547 0.695771 3.44572 0.855596C3.33592 1.01547 3.31376 1.21862 3.38646 1.39789L3.84961 2.53937H3.54097C3.21503 2.53937 2.9508 2.79987 2.9508 3.12119C2.9508 3.44252 3.21503 3.70302 3.54097 3.70302H3.64248C3.57698 3.88512 3.54097 4.08089 3.54097 4.28484C3.54097 4.73156 3.71224 5.13941 3.99324 5.44846C3.71224 5.75751 3.54097 6.16539 3.54097 6.61208C3.54097 6.81603 3.57698 7.01178 3.64248 7.19391H2.75409C2.42816 7.19391 2.16392 7.45441 2.16392 7.77573C2.16392 8.09706 2.42816 8.35756 2.75409 8.35756H2.85702C2.42387 8.88926 2.16395 9.56355 2.16395 10.297C2.16395 11.0304 2.4239 11.7047 2.85702 12.2363H0.59017C0.264236 12.2363 0 12.4968 0 12.8182C0 13.1395 0.264236 13.4 0.59017 13.4H10.0328C10.3587 13.4 10.6229 13.1395 10.6229 12.8182C10.6229 12.4968 10.3587 12.2363 10.0328 12.2363H7.76591C8.19906 11.7047 8.45898 11.0304 8.45898 10.297C8.45898 9.56355 8.19903 8.88926 7.76591 8.35756H7.86884C8.84509 8.35756 9.63932 7.57456 9.63932 6.61211V4.28484C9.63932 3.96401 9.90404 3.70302 10.2295 3.70302C10.5549 3.70302 10.8197 3.96401 10.8197 4.28484V10.297C10.8197 10.6183 11.0839 10.8788 11.4098 10.8788C11.7358 10.8788 12 10.6183 12 10.297V4.28484C12 3.32239 11.2057 2.53939 10.2295 2.53939Z" fill="white"/>
</svg>
