<svg width="14" height="14" viewBox="0 0 14 14" fill="none" xmlns="http://www.w3.org/2000/svg">
<path d="M4.65563 8.59509C4.60124 8.59969 4.54699 8.60205 4.4926 8.60205C4.34382 8.60205 4.19911 8.58036 4.05741 8.54742L0.778591 11.8412C0.617654 12.0026 0.617654 12.2648 0.778591 12.4263L1.62718 13.2789C1.78812 13.4404 2.04886 13.4404 2.20936 13.2789L6.15006 9.32111L5.41975 8.52959L4.65563 8.59509Z" fill="white"/>
<path d="M13.2843 3.31836C13.1304 3.16386 12.8814 3.16386 12.7275 3.31836L10.6027 5.45274C10.4016 5.65449 10.076 5.65449 9.87492 5.45274C9.67475 5.25114 9.67475 4.92427 9.87492 4.72272L11.9892 2.59929C12.149 2.43868 12.149 2.1783 11.9892 2.01732C11.8287 1.85691 11.5696 1.85691 11.4099 2.01732L9.29645 4.14054C9.0954 4.3425 8.7701 4.3425 8.56905 4.14054C8.36842 3.93902 8.36842 3.61191 8.56905 3.41056L10.6934 1.27639C10.8477 1.12165 10.8477 0.871015 10.6934 0.716071C10.5395 0.561311 10.2901 0.561311 10.1358 0.716071L7.74555 3.11723C7.17088 3.69487 6.98935 4.50569 7.1754 5.24347L8.77771 6.85314C9.51212 7.03935 10.3197 6.85692 10.8937 6.27975L13.2843 3.87872C13.4386 3.72399 13.4386 3.47309 13.2843 3.31836Z" fill="white"/>
<path d="M1.67394 0.933077C1.59203 0.850774 1.48127 0.805646 1.36753 0.805646C1.34333 0.805646 1.319 0.80772 1.29525 0.81171C1.15686 0.835233 1.03813 0.924466 0.977135 1.05148C0.27699 2.50517 0.569593 4.24463 1.70613 5.38637L3.73943 7.4286C3.94004 7.63035 4.21129 7.74203 4.4926 7.74203C4.52268 7.74203 4.55284 7.74077 4.58292 7.73828L5.76345 7.63707L10.9112 13.2155C10.9911 13.3022 11.1031 13.3526 11.221 13.3549C11.2235 13.3549 11.226 13.3549 11.2286 13.3549C11.3439 13.3549 11.4543 13.3092 11.5362 13.2275L12.4178 12.3417C12.4993 12.26 12.5448 12.1492 12.5448 12.0337C12.5448 11.9183 12.4993 11.8074 12.4182 11.7257L1.67394 0.933077Z" fill="white"/>
</svg>
